{"title":"Waist Deep 2006 DVDrip English Klam","uid":5821035,"size":1332246556,"categoryP":"video","categoryS":"movies","magnet":"?xt=urn:btih:11e4ca1f21495ab5d1df1a28c721c37874c46315&amp;dn=Waist+Deep+2006+DVDrip+English+Klam&amp;tr=udp%3A%2F%2Ftracker.openbittorrent.com%3A80&amp;tr=udp%3A%2F%2Fopen.demonii.com%3A1337&amp;tr=udp%3A%2F%2Ftracker.coppersurfer.tk%3A6969&amp;tr=udp%3A%2F%2Fexodus.desync.com%3A6969","seeders":0,"leechers":0,"uploader":"Klambake","files":-1,"time":1284045730,"description":"With: Tyrese Gibson, Meagan Good en Larenz Tate\n\nIn South Los Angeles, while bringing his beloved son Junior back home from school, the paroled ex-convicted O2 promises his son that he would always come back to him and never leave him alone. However, his car is hijacked and Junior is kidnapped. Without any lead, O2 forces the street vendor Coco to help him to find where his car might have been sent for disassembling. Meanwhile, O2's addicted brother Lucky discovers that the cruel leader of the Outlaw Syndicate, the drug lord Meat, is keeping the boy arrested in a room and asking a ransom of US$ 100,000.00 that he believes O2 have from an old heist. O2 and Coco plot a scheme to put the pimp P-Money and Meat against each other and steal their money\n\nGeneral:\n\nComplete name                    : Waist\\Waist Deep.avi\nFormat                           : AVI\nFormat/Info                      : Audio Video Interleave\nFile size                        : 1.24 GiB\nDuration                         : 1h 32mn\nOverall bit rate                 : 1 915 Kbps\n\nVideo:\n\nFormat                           : MPEG-4 Visual\nFormat profile                   : Simple@L3\nFormat settings, BVOP            : No\nFormat settings, QPel            : No\nFormat settings, GMC             : No warppoints\nFormat settings, Matrix          : Default (H.263)\nCodec ID                         : XVID\nCodec ID/Hint                    : XviD\nDuration                         : 1h 32mn\nBit rate                         : 1 520 Kbps\nWidth                            : 720 pixels\nHeight                           : 400 pixels\nDisplay aspect ratio             : 16:9\nFrame rate                       : 25.000 fps\nColor space                      : YUV\nChroma subsampling               : 4:2:0\nBit depth                        : 8 bits\nScan type                        : Progressive\nBits/(Pixel*Frame)               : 0.211\nStream size                      : 1 008 MiB (79%)\nWriting library                  : XviD 1.1.2 (UTC 2006-11-01)\n\nAudio:\n\nFormat                           : AC-3\nFormat/Info                      : Audio Coding 3\nMode extension                   : CM (complete main)\nCodec ID                         : 2000\nDuration                         : 1h 32mn\nBit rate mode                    : Constant\nBit rate                         : 384 Kbps\nChannel(s)                       : 6 channels\nChannel positions                : Front: L C R, Side: L R, LFE\nSampling rate                    : 48.0 KHz\nStream size                      : 254 MiB (20%)\nAlignment                        : Aligned on interleaves\nInterleave, duration             : 32 ms (0.80 video frame)\nInterleave, preload duration     : 896 ms","torrent":{"xt":"urn:btih:11e4ca1f21495ab5d1df1a28c721c37874c46315","amp;dn":"Waist+Deep+2006+DVDrip+English+Klam","amp;tr":["udp%3A%2F%2Ftracker.openbittorrent.com%3A80","udp%3A%2F%2Fopen.demonii.com%3A1337","udp%3A%2F%2Ftracker.coppersurfer.tk%3A6969","udp%3A%2F%2Fexodus.desync.com%3A6969"],"infoHash":"11e4ca1f21495ab5d1df1a28c721c37874c46315","infoHashBuffer":{"type":"Buffer","data":[17,228,202,31,33,73,90,181,209,223,26,40,199,33,195,120,116,196,99,21]},"announce":[],"urlList":[]}}